<svg xmlns="http://www.w3.org/2000/svg" version="1.1" xmlns:xlink="http://www.w3.org/1999/xlink" xmlns:svgjs="http://svgjs.dev/svgjs" width="1500" height="935" viewBox="0 0 1500 935"><g transform="matrix(1,0,0,1,-0.9090909090909918,30.589695129431902)"><svg viewBox="0 0 396 247" data-background-color="#020101" preserveAspectRatio="xMidYMid meet" height="935" width="1500" xmlns="http://www.w3.org/2000/svg" xmlns:xlink="http://www.w3.org/1999/xlink"><g id="tight-bounds" transform="matrix(1,0,0,1,0.2400000000000091,-0.09999999999999432)"><svg viewBox="0 0 395.52 247.2" height="247.2" width="395.52"><g><svg></svg></g><g><svg viewBox="0 0 395.52 247.2" height="247.2" width="395.52"><g transform="matrix(1,0,0,1,100.68716444244072,47.215199999999996)"><svg viewBox="0 0 194.14567111511855 152.7696" height="152.7696" width="194.14567111511855"><g><svg viewBox="0 0 194.14567111511855 152.7696" height="152.7696" width="194.14567111511855"><g><svg viewBox="0 0 244.43135999999998 192.33846873935332" height="152.7696" width="194.14567111511855"><g><svg viewBox="0 0 244.43135999999998 48.08370359447003" height="48.08370359447003" width="244.43135999999998"><g id="textblocktransform"><svg viewBox="0 0 244.43135999999998 48.08370359447003" height="48.08370359447003" width="244.43135999999998" id="textblock"><g><svg viewBox="0 0 244.43135999999998 48.08370359447003" height="48.08370359447003" width="244.43135999999998"><g transform="matrix(1,0,0,1,0,0)"><svg width="244.43135999999998" viewBox="0.1 -33.85 173.59 34.15" height="48.08370359447003" data-palette-color="#ffffff"><path d="M0.1-33.85L25.25-33.85 24.2-27.8 16.4-27.8 16.4 0 8.15 0 8.15-27.8 0.1-27.8 0.1-33.85ZM22.3 0L35.15-33.85 42.5-33.85 54.9 0 46.55 0 44.05-8.15 33.1-8.15 30.5 0 22.3 0ZM35-14.25L42.2-14.25Q41.7-15.7 41.17-17.28 40.65-18.85 40.17-20.35 39.7-21.85 39.3-23.18 38.9-24.5 38.6-25.4L38.6-25.4Q38.3-24.45 37.9-23.13 37.5-21.8 37.02-20.3 36.55-18.8 36.02-17.25 35.5-15.7 35-14.25L35-14.25ZM57.9 0L57.9-33.85 66.15-33.85 66.15-6.05 78.05-6.05 78.05 0 57.9 0ZM80.79 0L80.79-33.85 89.04-33.85 89.04-6.05 100.94-6.05 100.94 0 80.79 0ZM102.49-33.85L110.69-33.85 110.69-13.7Q110.69-11.5 111.17-10.05 111.64-8.6 112.47-7.7 113.29-6.8 114.44-6.43 115.59-6.05 116.89-6.05L116.89-6.05Q119.59-6.05 121.02-7.98 122.44-9.9 122.44-13.7L122.44-13.7 122.44-33.85 130.69-33.85 130.69-13.25Q130.69-10.55 129.94-8.1 129.19-5.65 127.47-3.78 125.74-1.9 122.99-0.8 120.24 0.3 116.24 0.3L116.24 0.3Q112.39 0.3 109.77-0.83 107.14-1.95 105.54-3.83 103.94-5.7 103.22-8.15 102.49-10.6 102.49-13.25L102.49-13.25 102.49-33.85ZM162.09-10.05L157.84 0 151.59 0 147.44-9.6Q147.29-10 146.86-11.08 146.44-12.15 145.91-13.53 145.39-14.9 144.84-16.35 144.29-17.8 143.84-19L143.84-19Q143.84-17.7 143.84-16 143.84-14.3 143.84-12.55 143.84-10.8 143.81-9.25 143.79-7.7 143.74-6.8L143.74-6.8 143.49 0 135.89 0 137.89-33.85 144.99-33.85 152.79-14.35Q153.14-13.45 153.71-11.83 154.29-10.2 154.84-8.3L154.84-8.3Q155.39-10.15 155.96-11.78 156.54-13.4 156.94-14.35L156.94-14.35 164.74-33.85 171.69-33.85 173.69 0 165.94 0 165.64-6.8Q165.59-7.75 165.56-9.3 165.54-10.85 165.54-12.58 165.54-14.3 165.56-16.03 165.59-17.75 165.59-19L165.59-19Q165.19-17.95 164.71-16.63 164.24-15.3 163.74-14.05 163.24-12.8 162.79-11.73 162.34-10.65 162.09-10.05L162.09-10.05Z" opacity="1" transform="matrix(1,0,0,1,0,0)" fill="#ffffff" class="wordmark-text-0" data-fill-palette-color="primary" id="text-0"></path></svg></g></svg></g></svg></g></svg></g><g transform="matrix(1,0,0,1,49.14377458170041,59.435112004238135)"><svg viewBox="0 0 146.14381083659916 132.90335673511518" height="132.90335673511518" width="146.14381083659916"><g><svg xmlns="http://www.w3.org/2000/svg" xmlns:xlink="http://www.w3.org/1999/xlink" version="1.1" x="0" y="0" viewBox="12.877257620633753 35.096141028955515 487.02801324477036 442.9038589710445" style="enable-background:new 0 0 512 512;" xml:space="preserve" height="132.90335673511518" width="146.14381083659916" class="icon-icon-0" data-fill-palette-color="accent" id="icon-0"><g fill="#ffffff" data-fill-palette-color="accent"><g fill="#ffffff" data-fill-palette-color="accent"><g fill="#ffffff" data-fill-palette-color="accent"><path d="M359.5 477.8H189.4c-8.9 0-16.1-7.2-16.1-16.1V418c0-13.8-1-27.8-2.9-41.5-0.3-2.2 1.2-4.2 3.4-4.5 2.2-0.3 4.2 1.2 4.5 3.4 2 14.1 3 28.5 3 42.6v43.8c0 4.5 3.6 8.1 8.1 8.1h170.1c4.5 0 8.1-3.6 8.1-8.1v-42.6c0-2.2 1.8-4 4-4h47.5c16.8 0 30.5-13.7 30.5-30.5V324c0-2.2 1.7-4 3.9-4l27.8-0.5c3.8-0.1 7.2-2.1 9.1-5.3 1.9-3.3 2-7.2 0.3-10.5l-30.4-57.3c-7-13.4-10.7-28.3-10.7-43.3 0-43-16.8-83.4-47.4-113.7C371.7 59.1 331.1 42.6 288.1 43c-31.3 0.2-61.4 9.4-87.2 26.6-1.8 1.2-4.3 0.7-5.5-1.1-1.2-1.8-0.7-4.3 1.1-5.5 27-18 58.7-27.7 91.5-27.9 45.2-0.3 87.7 16.9 119.8 48.7 32.1 31.8 49.7 74.2 49.7 119.4 0 13.7 3.4 27.3 9.8 39.5l30.4 57.3c3.1 5.8 2.9 12.7-0.4 18.4-3.4 5.7-9.3 9.2-15.9 9.3l-23.9 0.4v56.6c0 21.2-17.3 38.5-38.5 38.5h-43.5v38.6C375.6 470.6 368.4 477.8 359.5 477.8z" fill="#ffffff" data-fill-palette-color="accent"></path></g><g fill="#ffffff" data-fill-palette-color="accent"><path d="M294.1 163c-0.8 0-1.6-0.2-2.3-0.8-1.8-1.3-2.2-3.8-0.9-5.6l13-18-2.1-98.6c0-2.2 1.7-4 3.9-4.1 0 0 0.1 0 0.1 0 2.2 0 4 1.7 4 3.9l2.2 100c0 0.9-0.2 1.7-0.8 2.4l-13.8 19.1C296.5 162.5 295.3 163 294.1 163z" fill="#ffffff" data-fill-palette-color="accent"></path></g><g fill="#ffffff" data-fill-palette-color="accent"><path d="M375.5 175.6c-1.3 0-2.5-0.6-3.3-1.7L360 156.1c-0.5-0.7-0.7-1.5-0.7-2.3l1.1-96.8c0-2.2 1.8-4 4-4 0 0 0 0 0 0 2.2 0 4 1.8 4 4l-1 95.5 11.4 16.8c1.2 1.8 0.8 4.3-1.1 5.6C377 175.4 376.2 175.6 375.5 175.6z" fill="#ffffff" data-fill-palette-color="accent"></path></g><g fill="#ffffff" data-fill-palette-color="accent"><path d="M305.7 478c-2.2 0-3.9-1.7-4-3.9l-2.2-83.3c-0.1-2.2 1.7-4 3.9-4.1 2.2-0.1 4 1.7 4.1 3.9l2.2 83.3c0.1 2.2-1.7 4-3.9 4.1C305.7 478 305.7 478 305.7 478z" fill="#ffffff" data-fill-palette-color="accent"></path></g><g fill="#ffffff" data-fill-palette-color="accent"><path d="M270.6 476.5c-2.2 0-4-1.7-4-3.9l-0.7-41.7L252.7 419c-1.6-1.5-1.8-4-0.3-5.6 1.5-1.6 4-1.8 5.6-0.3l14.5 13c0.8 0.7 1.3 1.8 1.3 2.9l0.7 43.4C274.6 474.7 272.9 476.5 270.6 476.5 270.6 476.5 270.6 476.5 270.6 476.5z" fill="#ffffff" data-fill-palette-color="accent"></path></g><g fill="#ffffff" data-fill-palette-color="accent"><path d="M147.3 347.2h-40.1c-2.2 0-4-1.8-4-4v-22c-17.1-4.4-32.6-13.3-45.1-26.1l-19.1 11.1c-0.9 0.5-2 0.7-3 0.4-1-0.3-1.9-0.9-2.4-1.9l-20-34.7c-1.1-1.9-0.4-4.3 1.5-5.5L34 253.4c-2.4-8.4-3.6-17.1-3.6-26 0-8.9 1.2-17.6 3.6-26.1l-19.1-11c-1.9-1.1-2.6-3.5-1.5-5.5l20-34.7c1.1-1.9 3.5-2.6 5.5-1.5l19.1 11c12.5-12.7 27.9-21.7 45.1-26.1v-22.1c0-2.2 1.8-4 4-4h40.1c2.2 0 4 1.8 4 4v22.1c17.1 4.4 32.6 13.3 45.1 26.1l19.1-11c1.9-1.1 4.4-0.4 5.5 1.5l20 34.7c1.1 1.9 0.4 4.4-1.5 5.5l-19.1 11c2.4 8.5 3.6 17.2 3.6 26.1 0 8.9-1.2 17.6-3.6 26l19.1 11.1c1.9 1.1 2.6 3.5 1.5 5.5l-20 34.7c-0.5 0.9-1.4 1.6-2.4 1.9-1 0.3-2.1 0.1-3-0.4l-19.1-11.1c-12.5 12.8-28 21.7-45.1 26.1v22C151.3 345.4 149.5 347.2 147.3 347.2zM111.2 339.2h32.1V318c0-1.9 1.3-3.5 3.1-3.9 17.8-3.9 33.8-13.2 46.3-26.8 1.3-1.4 3.3-1.7 4.9-0.8l18.4 10.7 16-27.8-18.4-10.7c-1.6-0.9-2.4-2.9-1.8-4.7 2.7-8.6 4.1-17.5 4.1-26.7 0-9.1-1.4-18.2-4.1-26.8-0.6-1.8 0.2-3.7 1.8-4.7l18.3-10.6-16-27.8-18.4 10.6c-1.6 0.9-3.7 0.6-4.9-0.8-12.4-13.6-28.4-22.8-46.3-26.7-1.8-0.4-3.1-2-3.1-3.9v-21.2h-32.1v21.2c0 1.9-1.3 3.5-3.1 3.9-17.8 3.9-33.8 13.2-46.3 26.7-1.3 1.4-3.3 1.7-4.9 0.8l-18.4-10.6-16 27.8 18.3 10.6c1.6 0.9 2.4 2.9 1.8 4.7-2.7 8.6-4.1 17.6-4.1 26.8 0 9.2 1.4 18.1 4.1 26.7 0.6 1.8-0.2 3.7-1.8 4.7l-18.4 10.7 16 27.8 18.4-10.7c1.6-0.9 3.7-0.6 5 0.8 12.5 13.6 28.5 22.9 46.3 26.8 1.8 0.4 3.1 2 3.1 3.9L111.2 339.2 111.2 339.2z" fill="#ffffff" data-fill-palette-color="accent"></path></g><g fill="#ffffff" data-fill-palette-color="accent"><path d="M127.2 290.6c-34.9 0-63.3-28.4-63.3-63.3 0-34.9 28.4-63.4 63.3-63.4 34.9 0 63.3 28.4 63.3 63.4C190.5 262.3 162.1 290.6 127.2 290.6zM127.2 172C96.8 172 72 196.9 72 227.4c0 30.5 24.8 55.3 55.3 55.3 30.5 0 55.3-24.8 55.3-55.3C182.5 196.9 157.7 172 127.2 172z" fill="#ffffff" data-fill-palette-color="accent"></path></g><g fill="#ffffff" data-fill-palette-color="accent"><path d="M127.2 264.2c-20.3 0-36.8-16.5-36.8-36.8 0-20.3 16.5-36.8 36.8-36.8 20.3 0 36.8 16.5 36.8 36.8C164 247.7 147.5 264.2 127.2 264.2zM127.2 198.6c-15.9 0-28.8 12.9-28.8 28.8 0 15.9 12.9 28.8 28.8 28.8 15.9 0 28.8-12.9 28.8-28.8C156 211.5 143.1 198.6 127.2 198.6z" fill="#ffffff" data-fill-palette-color="accent"></path></g><g fill="#ffffff" data-fill-palette-color="accent"><path d="M283.7 199.2c-13 0-23.6-10.6-23.6-23.6 0-13 10.6-23.6 23.6-23.6 13 0 23.5 10.6 23.5 23.6C307.2 188.6 296.7 199.2 283.7 199.2zM283.7 160.1c-8.6 0-15.6 7-15.6 15.6 0 8.6 7 15.6 15.6 15.6 8.5 0 15.5-7 15.5-15.6C299.2 167 292.3 160.1 283.7 160.1z" fill="#ffffff" data-fill-palette-color="accent"></path></g><g fill="#ffffff" data-fill-palette-color="accent"><path d="M386.3 211.5c-13 0-23.5-10.6-23.5-23.6 0-13 10.5-23.6 23.5-23.6 13 0 23.6 10.6 23.6 23.6C409.8 200.9 399.3 211.5 386.3 211.5zM386.3 172.3c-8.5 0-15.5 7-15.5 15.6 0 8.6 7 15.6 15.5 15.6 8.6 0 15.6-7 15.6-15.6C401.8 179.3 394.9 172.3 386.3 172.3z" fill="#ffffff" data-fill-palette-color="accent"></path></g><g fill="#ffffff" data-fill-palette-color="accent"><path d="M303.5 396.7c-13 0-23.6-10.5-23.6-23.5 0-13 10.6-23.6 23.6-23.6 13 0 23.5 10.6 23.5 23.6C327 386.1 316.5 396.7 303.5 396.7zM303.5 357.6c-8.6 0-15.6 7-15.6 15.6 0 8.6 7 15.5 15.6 15.5 8.5 0 15.5-7 15.5-15.5C319 364.6 312.1 357.6 303.5 357.6z" fill="#ffffff" data-fill-palette-color="accent"></path></g><g fill="#ffffff" data-fill-palette-color="accent"><path d="M242.7 425.6c-13 0-23.5-10.6-23.5-23.6 0-13 10.5-23.5 23.5-23.5 13 0 23.6 10.5 23.6 23.5C266.3 415 255.7 425.6 242.7 425.6zM242.7 386.5c-8.5 0-15.5 7-15.5 15.5 0 8.6 7 15.6 15.5 15.6 8.6 0 15.6-7 15.6-15.6C258.3 393.5 251.3 386.5 242.7 386.5z" fill="#ffffff" data-fill-palette-color="accent"></path></g></g></g></svg></g></svg></g><g></g></svg></g></svg></g></svg></g><g><path d="M151.61 38.199A97.073 97.073 0 0 1 243.91 38.199L240.466 38.199A93.629 93.629 0 0 0 155.054 38.199L151.61 38.199M151.61 209.001A97.073 97.073 0 0 0 243.91 209.001L240.466 209.001A93.629 93.629 0 0 1 155.054 209.001L151.61 209.001" fill="#ffffff" stroke="transparent" data-fill-palette-color="tertiary"></path></g></svg></g><defs></defs></svg><rect width="395.52" height="247.2" fill="none" stroke="none" visibility="hidden"></rect></g></svg></g></svg>