<svg xmlns="http://www.w3.org/2000/svg" version="1.1" xmlns:xlink="http://www.w3.org/1999/xlink" xmlns:svgjs="http://svgjs.dev/svgjs" width="2000" height="1907" viewBox="0 0 2000 1907"><g transform="matrix(1,0,0,1,-1.5256977194694628,0.7720647773278415)"><svg viewBox="0 0 259 247" data-background-color="#ffffff" preserveAspectRatio="xMidYMid meet" height="1907" width="2000" xmlns="http://www.w3.org/2000/svg" xmlns:xlink="http://www.w3.org/1999/xlink"><g id="tight-bounds" transform="matrix(1,0,0,1,0.19757785467129452,-0.09999999999999432)"><svg viewBox="0 0 258.6048442906574 247.2" height="247.2" width="258.6048442906574"><g><svg viewBox="0 0 258.6048442906574 247.2" height="247.2" width="258.6048442906574"><g><svg viewBox="0 0 258.6048442906574 247.2" height="247.2" width="258.6048442906574"><g id="textblocktransform"><svg viewBox="0 0 258.6048442906574 247.2" height="247.2" width="258.6048442906574" id="textblock"><g><svg viewBox="0 0 258.6048442906574 247.2" height="247.2" width="258.6048442906574"><g transform="matrix(1,0,0,1,0,0)"><svg width="258.6048442906574" viewBox="0.95 -42.95 45.349999999999994 43.35" height="247.2" data-palette-color="#808080"><path d="M11.45 0.4Q8.5 0.4 6.1-0.75 3.7-1.9 2.33-4.13 0.95-6.35 0.95-9.5L0.95-9.5 0.95-20.25 9.4-20.25 9.4-10Q9.4-8.85 9.88-8.18 10.35-7.5 11.35-7.5L11.35-7.5Q12.3-7.5 12.78-8.13 13.25-8.75 13.25-9.9L13.25-9.9 13.25-42.95 21.9-42.95 21.9-10.75Q21.9-7.4 20.58-4.88 19.25-2.35 16.88-0.98 14.5 0.4 11.45 0.4L11.45 0.4ZM25.2 0L25.2-42.95 36.85-42.95Q41.55-42.95 43.67-40.65 45.8-38.35 45.8-33.15L45.8-33.15 45.8-31.25Q45.8-25.1 41.4-23.9L41.4-23.9Q44.1-23.2 45.2-20.65 46.3-18.1 46.3-13.9L46.3-13.9Q46.3-7.05 44.25-3.53 42.2 0 36.85 0L36.85 0 25.2 0ZM33.6-26.8L35.35-26.8Q36.45-26.8 36.85-27.63 37.25-28.45 37.25-29.95L37.25-29.95 37.25-34.25Q37.25-36.35 35.4-36.35L35.4-36.35 33.6-36.35 33.6-26.8ZM34.45-7.55Q37.8-7.55 37.8-10.75L37.8-10.75 37.8-16.1Q37.8-18.05 37.22-19.05 36.65-20.05 35.2-20.05L35.2-20.05 33.6-20.05 33.6-7.6 34.45-7.55Z" opacity="1" transform="matrix(1,0,0,1,0,0)" fill="#808080" class="wordmark-text-0" data-fill-palette-color="primary" id="text-0"></path></svg></g></svg></g></svg></g></svg></g></svg></g><defs></defs></svg><rect width="258.6048442906574" height="247.2" fill="none" stroke="none" visibility="hidden"></rect></g></svg></g></svg>